<svg class="icon" style="width: 1em;height: 1em;vertical-align: middle;fill: currentColor;overflow: hidden;" viewBox="0 0 1024 1024" version="1.1" xmlns="http://www.w3.org/2000/svg" p-id="22926">
    <path d="M853.333333 810.666667h-298.666666c-72.533333 0-128-55.466667-128-128V273.066667l140.8 140.8c8.533333 8.533333 17.066667 12.8 29.866666 12.8s21.333333-4.266667 29.866667-12.8c17.066667-17.066667 17.066667-42.666667 0-59.733334l-213.333333-213.333333c-4.266667-4.266667-8.533333-8.533333-12.8-8.533333-12.8-4.266667-21.333333-4.266667-34.133334 0-4.266667 0-8.533333 4.266667-12.8 8.533333l-213.333333 213.333333c-17.066667 17.066667-17.066667 42.666667 0 59.733334s42.666667 17.066667 59.733333 0L341.333333 273.066667V682.666667c0 119.466667 93.866667 213.333333 213.333334 213.333333h298.666666c25.6 0 42.666667-17.066667 42.666667-42.666667s-17.066667-42.666667-42.666667-42.666666z" p-id="22927"></path>
</svg>
