<svg class="icon" style="width: 1em;height: 1em;vertical-align: middle;fill: currentColor;overflow: hidden;" viewBox="0 0 1024 1024" version="1.1" xmlns="http://www.w3.org/2000/svg" p-id="12073">
    <path d="M160 242v540h704V242z" fill="#29B6F6" p-id="12074"></path>
    <path d="M466.75 745.3l193.4-227.7-86.2 101.5 29.1 33.9 44.7-36.4 45.75 44.7 40.55-39 45.75 44.2 16.1-29.4 93.35 108.45-16.35 18.7 16.4-18.75c9 10.45 8.9 27.3-0.15 37.65-5 5.7-11.7 8.25-18.25 7.6l-388.9 1.05v0.1c-12.75 0.05-23.15-11.85-23.15-26.55 0-8 3.05-15.15 7.9-20.05z" fill="#37474F" p-id="12075"></path>
    <path d="M137.7 742.65l239.25-315.5-106.65 140.65 36 46.95 55.3-50.45 56.6 61.95 50.15-54.05 56.6 61.25 19.9-40.75 168.85 207.3c-162.85-15-385.4 6.55-557.1 7.05v0.15c-15.8 0.05-28.6-16.45-28.65-36.8 0.05-11.05 3.8-21 9.75-27.75z" fill="#455A64" p-id="12076"></path>
    <path d="M270.3 567.8l106.65-140.65-0.05-0.05c11.05-14.55 29.15-14.8 40.45-0.55 0.6 0.8 1.2 1.6 1.75 2.45l125.85 163.75-19.9 40.75-56.6-61.25-50.15 54.05-56.6-61.95-55.3 50.45-36.1-47z" fill="#FFFFFE" p-id="12077"></path>
    <path d="M154 210h716c7.15 0 13.65 2.9 18.35 7.65l-0.05 0.05c4.75 4.75 7.65 11.25 7.65 18.35v552c0 7.1-2.95 13.6-7.65 18.35l0.05 0.05c-4.7 4.7-11.2 7.65-18.35 7.65H154c-7.15 0-13.65-2.9-18.4-7.65-4.7-4.7-7.65-11.2-7.65-18.35V236c0-7.15 2.9-13.65 7.65-18.4l0.05 0.05c4.75-4.7 11.25-7.65 18.35-7.65z m710 32H160v540h704V242z" fill="#795548" p-id="12078"></path>
    <path d="M273.85 279.4c16.15 0 30.75 6.55 41.35 17.1 10.6 10.6 17.1 25.2 17.1 41.35s-6.55 30.75-17.1 41.35c-10.6 10.6-25.2 17.1-41.35 17.1s-30.75-6.55-41.35-17.1c-10.6-10.6-17.1-25.2-17.1-41.35s6.55-30.75 17.1-41.35c10.6-10.55 25.2-17.1 41.35-17.1z" fill="#FCCB0D" p-id="12079"></path>
    <path d="M273.85 256c2.35 0 4.25 1.9 4.25 4.2v9.4c0 2.35-1.9 4.2-4.2 4.2-2.35 0-4.2-1.9-4.2-4.2v-9.4c-0.1-2.3 1.8-4.2 4.15-4.2zM313.8 266.4l1.95 1.15c1.5 0.85 1.65 3.25 0.45 5.4l-4.45 7.7c-1.25 2.15-3.45 3.15-4.9 2.3l-1.95-1.15c-1.5-0.85-1.65-3.25-0.45-5.4l4.45-7.7c1.2-2.1 3.4-3.15 4.9-2.3zM344.15 295.95l1.15 1.95c0.85 1.5-0.2 3.65-2.3 4.9l-7.7 4.45c-2.15 1.25-4.55 1.05-5.4-0.45l-1.15-1.95c-0.85-1.5 0.2-3.65 2.3-4.9l7.7-4.45c2.15-1.25 4.55-1.05 5.4 0.45zM4.2 0h3.1C9.65 0 11.5 1.9 11.5 4.2v8.45c0 2.35-1.9 4.2-4.2 4.2H4.2C1.9 16.9 0 15 0 12.65V4.2C0 1.9 1.9 0 4.2 0zM345.3 377.8l-1.15 1.95c-0.85 1.5-3.25 1.65-5.4 0.45l-7.7-4.45c-2.15-1.25-3.15-3.45-2.3-4.9l1.15-1.95c0.85-1.5 3.25-1.65 5.4-0.45l7.7 4.45c2.1 1.2 3.15 3.4 2.3 4.9zM315.75 408.15l-1.95 1.15c-1.5 0.85-3.65-0.2-4.9-2.3l-4.45-7.7c-1.25-2.15-1.05-4.55 0.45-5.4l1.95-1.15c1.5-0.85 3.65 0.2 4.9 2.3l4.45 7.7c1.25 2.15 1.05 4.55-0.45 5.4zM273.85 401.85c2.35 0 4.25 1.9 4.25 4.2v9.4c0 2.35-1.9 4.2-4.2 4.2-2.35 0-4.2-1.9-4.2-4.2v-9.4c-0.05-2.3 1.8-4.2 4.15-4.2zM233.9 409.3l-1.95-1.15c-1.5-0.85-1.65-3.25-0.45-5.4l4.45-7.7c1.25-2.15 3.45-3.15 4.9-2.3l1.95 1.15c1.5 0.85 1.65 3.25 0.45 5.4l-4.45 7.7c-1.2 2.1-3.4 3.15-4.9 2.3zM203.55 379.75l-1.15-1.95c-0.85-1.5 0.2-3.65 2.3-4.9l7.7-4.45c2.15-1.25 4.55-1.05 5.4 0.45l1.15 1.95c0.85 1.5-0.2 3.65-2.3 4.9l-7.7 4.45c-2.15 1.25-4.55 1.05-5.4-0.45z" fill="#FCCB0D" p-id="12080"></path>
    <path d="M4.2 0h3.1C9.65 0 11.5 1.9 11.5 4.2v8.45c0 2.35-1.9 4.2-4.2 4.2H4.2C1.9 16.9 0 15 0 12.65V4.2C0 1.9 1.9 0 4.2 0zM202.4 297.9l1.15-1.95c0.85-1.5 3.25-1.65 5.4-0.45l7.7 4.45c2.15 1.25 3.15 3.45 2.3 4.9l-1.15 1.95c-0.85 1.5-3.25 1.65-5.4 0.45l-7.7-4.45c-2.1-1.2-3.15-3.4-2.3-4.9zM231.95 267.55l1.95-1.15c1.5-0.85 3.65 0.2 4.9 2.3l4.45 7.7c1.25 2.15 1.05 4.55-0.45 5.4l-1.95 1.15c-1.5 0.85-3.65-0.2-4.9-2.3l-4.45-7.7c-1.25-2.15-1.05-4.55 0.45-5.4z" fill="#FCCB0D" p-id="12081"></path>
    <path d="M570 623.65l90.1-106.05-0.05-0.05c8.9-10.5 23.55-10.7 32.7-0.4 0.5 0.55 1 1.15 1.45 1.75l101.7 118.2-16.1 29.4-45.75-44.2-40.55 39-45.75-44.7-49.3 41.8-28.45-34.75z" fill="#E0F7FA" p-id="12082"></path>
    <path d="M712.1 294.95c5.3-13.25 21.4-22.95 40.5-22.95 23.4 0 42.35 14.5 42.35 32.4 0 6.9-2.85 13.3-7.65 18.6 10.9 3.9 18.45 12.25 18.45 21.95 0 13.45-14.5 24.3-32.4 24.3H672.5c-17.9 0-32.4-10.9-32.4-24.3 0-10.85 9.5-20.05 22.6-23.15-0.65-1.65-0.95-3.4-0.95-5.2 0-12.7 16.95-22.95 37.8-22.95 4.3-0.05 8.6 0.45 12.55 1.3z" fill="#FFFFFE" p-id="12083"></path>
    <path d="M496.05 348.85c11.2-14.1 48.4-7.8 54.35 24.1 6.95-24.25-19.55-55.05-44.45-41.2v-0.05h-0.05c-0.5-28.5-40.35-36.05-57.9-17.9 30.65-10.75 54.7 18.3 48.05 35.05z" fill="#424242" p-id="12084"></path>
    <path d="M486.1 345.15l14.3-3.85 3.85 14.3z" fill="#424242" p-id="12085"></path>
</svg>
