<svg xmlns="http://www.w3.org/2000/svg" xmlns:xlink="http://www.w3.org/1999/xlink" enable-background="new 0 0 512 512" height="512px" id="Layer_1" version="1.1" viewBox="0 0 512 512" width="512px" xml:space="preserve"><g><path d="   M412.5,431c0,6.627-5.373,12-12,12h-289c-6.627,0-12-5.373-12-12V81c0-6.627,5.373-12,12-12h289c6.627,0,12,5.373,12,12V431z" fill="#65A0D6" stroke="#3B3A3E" stroke-linecap="round" stroke-linejoin="round" stroke-miterlimit="10" stroke-width="20"/><polygon fill="none" points="   225.485,186.997 322.008,242.723 225.485,298.451  " stroke="#3B3A3E" stroke-linecap="round" stroke-linejoin="round" stroke-miterlimit="10" stroke-width="20"/><path d="   M412.5,431c0,6.627-5.373,12-12,12h-289c-6.627,0-12-5.373-12-12V81c0-6.627,5.373-12,12-12h289c6.627,0,12,5.373,12,12V431z" fill="none" stroke="#3B3A3E" stroke-linecap="round" stroke-linejoin="round" stroke-miterlimit="10" stroke-width="20"/><path d="   M412.5,431c0,6.627-5.373,12-12,12h-289c-6.627,0-12-5.373-12-12v-40c0-6.627,5.373-12,12-12h289c6.627,0,12,5.373,12,12V431z" fill="none" stroke="#3B3A3E" stroke-linecap="round" stroke-linejoin="round" stroke-miterlimit="10" stroke-width="20"/><line fill="none" stroke="#3B3A3E" stroke-linecap="round" stroke-linejoin="round" stroke-miterlimit="10" stroke-width="20" x1="246.167" x2="273.746" y1="411" y2="411"/><polygon fill="#D9DCE1" points="   225.485,186.997 322.008,242.723 225.485,298.451  " stroke="#3B3A3E" stroke-linecap="round" stroke-linejoin="round" stroke-miterlimit="10" stroke-width="20"/><path d="   M412.5,431c0,6.627-5.373,12-12,12h-289c-6.627,0-12-5.373-12-12v-40c0-6.627,5.373-12,12-12h289c6.627,0,12,5.373,12,12V431z" fill="#D9DCE1" stroke="#3B3A3E" stroke-linecap="round" stroke-linejoin="round" stroke-miterlimit="10" stroke-width="20"/><line fill="none" stroke="#3B3A3E" stroke-linecap="round" stroke-linejoin="round" stroke-miterlimit="10" stroke-width="20" x1="246.167" x2="273.746" y1="411" y2="411"/></g></svg>
